<?xml version="1.0" encoding="UTF-8"?>
<!-- Created with Inkscape (http://www.inkscape.org/) -->
<svg id="a" width="53.001mm" height="10.166mm" version="1.1" viewBox="0 0 53.001 10.166" xmlns="http://www.w3.org/2000/svg">
 <g id="b" transform="translate(-126.59 -98.122)">
  <g id="c" transform="matrix(.35278 0 0 -.35278 98.903 301.49)">
   <path id="d" d="m78.48 558.18c0.7293-0.4385 1.4539-0.7628 2.1736-0.9771 0.72-0.2146 1.4014-0.3195 2.0452-0.3195 0.7815 0 1.4012 0.1049 1.8493 0.3195 0.4527 0.2143 0.6769 0.5386 0.6769 0.9771 0 0.2812-0.1 0.5148-0.305 0.7007-0.2049 0.186-0.4671 0.3478-0.7914 0.4861-0.3192 0.1384-0.6721 0.2671-1.0534 0.3765-0.3815 0.1145-0.7483 0.2384-1.1012 0.3767-0.5672 0.2146-1.0676 0.4482-1.5015 0.6911-0.4337 0.248-0.796 0.5338-1.0914 0.8629-0.2908 0.324-0.5148 0.7007-0.6675 1.1296-0.1525 0.4291-0.2336 0.9343-0.2336 1.5205 0 0.8008 0.1763 1.4921 0.5244 2.0687 0.3481 0.5769 0.8152 1.0488 1.3966 1.4159 0.5817 0.3668 1.249 0.6387 1.9973 0.8101 0.7484 0.1718 1.5302 0.2577 2.3406 0.2577 0.6338 0 1.2725-0.0476 1.9256-0.148 2.7175-0.3965 1.9306-1.0284 1.9306-3.8324-0.5626 0.3288-1.1585 0.572-1.7971 0.7342-0.6387 0.1621-1.2632 0.2429-1.878 0.2429-0.2908 0-0.5627-0.0238-0.8152-0.0762-0.2574-0.0477-0.4862-0.1239-0.6818-0.224-0.1953-0.0952-0.3478-0.2191-0.4575-0.3764-0.1145-0.1525-0.1667-0.3291-0.1667-0.5244 0-0.2574 0.0808-0.4814 0.2478-0.6673 0.1715-0.186 0.3861-0.3481 0.6576-0.4816 0.2719-0.1381 0.5721-0.2574 0.9012-0.3623 0.3288-0.1097 0.6576-0.2191 0.9867-0.3288 0.5862-0.2049 1.1152-0.4289 1.5919-0.6721 0.472-0.2432 0.8819-0.5244 1.2204-0.8532 0.3384-0.324 0.6006-0.7056 0.7818-1.1441 0.1808-0.4385 0.2715-0.9581 0.2715-1.5636 0-0.8481-0.1811-1.5729-0.553-2.1736-0.3668-0.6004-0.853-1.0865-1.4633-1.4632-0.61-0.3767-1.3155-0.6528-2.1115-0.8246-0.7962-0.1715-1.6208-0.2574-2.4789-0.2574-4.7543 0-4.371 0.4144-4.371 4.2996zm18.284-4.2996c-2.3836 0-4.2568 0.6673-5.6199 2.0021-1.3635 1.3346-2.045 3.1507-2.045 5.4386 0 2.3643 0.7053 4.2185 2.1212 5.5533 1.4156 1.3346 3.3319 2.0021 5.739 2.0021 2.3738 0 4.2376-0.6675 5.5866-2.0021 1.349-1.3348 2.0259-3.1031 2.0259-5.3005 0-2.374-0.6959-4.252-2.088-5.6296-1.3918-1.3774-3.2984-2.0639-5.7198-2.0639zm0.1143 11.616c-1.044 0-1.8542-0.3575-2.431-1.0724-0.5769-0.7197-0.8674-1.7351-0.8674-3.0461 0-2.7456 1.1106-4.1184 3.327-4.1184 2.1115 0 3.17 1.411 3.17 4.2281 0 2.6739-1.0678 4.0088-3.1986 4.0088zm19.342-10.754c-0.9961-0.5766-2.4358-0.8626-4.3138-0.8626-2.1974 0-3.9753 0.6627-5.3339 1.9973-1.3584 1.3297-2.0401 3.0458-2.0401 5.1528 0 2.431 0.7293 4.3424 2.1832 5.7438 1.4585 1.4012 3.4081 2.1022 5.8488 2.1022 1.6823 0 2.9026-0.2242 3.6558-0.6675v-3.7466c-0.9198 0.6911-1.9497 1.0344-3.0841 1.0344-1.2679 0-2.2688-0.3671-3.0124-1.1106-0.7387-0.7388-1.1106-1.7589-1.1106-3.0651 0-1.2632 0.3575-2.2593 1.063-2.9793 0.7053-0.7242 1.6827-1.0819 2.9171-1.0819 1.1013 0 2.1737 0.3432 3.227 1.0343zm5.2515-0.5148h-4.409v14.3h4.409zm8.4787-0.3478c-2.3837 0-4.2568 0.6673-5.6203 2.0021-1.3632 1.3346-2.0446 3.1507-2.0446 5.4386 0 2.3643 0.7053 4.2185 2.1209 5.5533 1.4159 1.3346 3.3321 2.0021 5.7393 2.0021 2.3737 0 4.2375-0.6675 5.5865-2.0021 1.349-1.3348 2.0259-3.1031 2.0259-5.3005 0-2.374-0.6959-4.252-2.088-5.6296-1.3918-1.3774-3.2984-2.0639-5.7197-2.0639zm0.1142 11.616c-1.044 0-1.8544-0.3575-2.431-1.0724-0.5768-0.7197-0.8674-1.7351-0.8674-3.0461 0-2.7456 1.1106-4.1184 3.327-4.1184 2.1116 0 3.1697 1.411 3.1697 4.2281 0 2.6739-1.0675 4.0088-3.1983 4.0088zm19.342-10.754c-0.9961-0.5766-2.4359-0.8626-4.3138-0.8626-2.1974 0-3.9756 0.6627-5.334 1.9973-1.3586 1.3297-2.0401 3.0458-2.0401 5.1528 0 2.431 0.7291 4.3424 2.183 5.7438 1.4587 1.4012 3.4084 2.1022 5.849 2.1022 1.6824 0 2.9027-0.2242 3.6559-0.6675v-3.7466c-0.9199 0.6911-1.9497 1.0344-3.0841 1.0344-1.268 0-2.2689-0.3671-3.0124-1.1106-0.739-0.7388-1.1106-1.7589-1.1106-3.0651 0-1.2632 0.3574-2.2593 1.063-2.9793 0.7052-0.7242 1.6826-1.0819 2.9171-1.0819 1.101 0 2.1736 0.3432 3.227 1.0343zm12.74-0.5148h-4.1757v2.0546h-0.0573c-0.9581-1.6016-2.3785-2.4024-4.2613-2.4024-1.387 0-2.4786 0.3909-3.2749 1.1772-0.7959 0.7866-1.1917 1.8403-1.1917 3.1507 0 2.7746 1.6447 4.3762 4.9289 4.805l3.8849 0.5148c0 1.5636-0.8484 2.3451-2.5455 2.3451-1.7017 0-3.3222-0.5051-4.8572-1.5205v3.3225c0.6149 0.3192 1.4539 0.5958 2.5217 0.839 1.0627 0.243 2.0353 0.3623 2.9123 0.3623 4.0757 0 6.1158-2.0355 6.1158-6.1016zm-4.1471 5.8107v0.963l-2.598-0.3337c-1.4346-0.1859-2.1495-0.8342-2.1495-1.9448 0-0.5006 0.1715-0.9153 0.5193-1.2348 0.3527-0.3192 0.8246-0.4813 1.4208-0.4813 0.8294 0 1.5015 0.286 2.0256 0.858 0.5196 0.5721 0.7818 1.2966 0.7818 2.1736zm28.293-5.8107h-4.3996v8.1558c0 2.0784-0.7625 3.1128-2.2878 3.1128-0.7246 0-1.3156-0.3099-1.7731-0.9343-0.4578-0.6245-0.6866-1.4015-0.6866-2.331v-8.0033h-4.4093v8.2417c0 2.0163-0.7531 3.0269-2.2498 3.0269-0.7532 0-1.3587-0.2957-1.8065-0.8912-0.453-0.5959-0.6815-1.4063-0.6815-2.4313v-7.9461h-4.4093v14.3h4.4093v-2.2357h0.057c0.4578 0.7628 1.0964 1.3873 1.921 1.8638 0.8246 0.4816 1.7255 0.72 2.7026 0.72 2.0211 0 3.4035-0.8867 4.1471-2.6648 1.0916 1.7781 2.6883 2.6648 4.805 2.6648 3.1079 0 4.6615-1.9162 4.6615-5.7535zm5.9094 1.6637h-0.0572v-8.2415h-4.409v20.878h4.409v-2.1498h0.0572c1.0917 1.6637 2.6218 2.4979 4.595 2.4979 1.8541 0 3.2842-0.6341 4.2948-1.9068 1.0105-1.268 1.5159-2.9983 1.5159-5.1863 0-2.3831-0.591-4.2948-1.7685-5.739-1.1772-1.4443-2.7456-2.164-4.6998-2.164-1.721 0-3.0317 0.6673-3.9374 2.0115zm-0.1238 5.8631v-1.144c0-0.9868 0.2573-1.7924 0.7818-2.4168 0.5193-0.6245 1.2058-0.9343 2.0542-0.9343 1.0009 0 1.7827 0.386 2.3358 1.1633 0.553 0.7767 0.8342 1.8779 0.8342 3.3032 0 2.5169-0.9771 3.7704-2.9364 3.7704-0.9009 0-1.6396-0.3385-2.2116-1.0248-0.572-0.6865-0.858-1.5922-0.858-2.717zm24.928-7.5268h-4.3996v2.1784h-0.0667c-1.0916-1.6826-2.5455-2.5262-4.3713-2.5262-3.3176 0-4.9714 2.0066-4.9714 6.0202v8.6278h4.3994v-8.2369c0-2.0211 0.8011-3.0316 2.4027-3.0316 0.7911 0 1.4204 0.2766 1.8972 0.8294 0.4765 0.553 0.7101 1.3062 0.7101 2.2547v8.1844h4.3996zm0.728 3.9518c0.729-0.4385 1.4538-0.7628 2.1736-0.9771 0.7197-0.2146 1.4014-0.3195 2.0449-0.3195 0.7815 0 1.4011 0.1049 1.8493 0.3195 0.453 0.2143 0.6769 0.5386 0.6769 0.9771 0 0.2812-0.1001 0.5148-0.305 0.7007-0.2049 0.186-0.4671 0.3478-0.7911 0.4861-0.3195 0.1384-0.6724 0.2671-1.0537 0.3765-0.3812 0.1145-0.7483 0.2384-1.101 0.3767-0.5672 0.2146-1.0678 0.4482-1.5015 0.6911-0.434 0.248-0.7959 0.5338-1.0916 0.8629-0.2908 0.324-0.5148 0.7007-0.6673 1.1296-0.1528 0.4291-0.2335 0.9343-0.2335 1.5205 0 0.8008 0.1763 1.4921 0.5244 2.0687 0.3478 0.5769 0.8149 1.0488 1.3966 1.4159 0.5814 0.3668 1.2487 0.6387 1.9973 0.8101 0.748 0.1718 1.5298 0.2577 2.3403 0.2577 0.6338 0 1.2727-0.0476 1.9255-0.148 2.7176-0.3965 1.9307-1.0284 1.9307-3.8324-0.5624 0.3288-1.1582 0.572-1.7971 0.7342-0.6387 0.1621-1.2632 0.2429-1.878 0.2429-0.2908 0-0.5627-0.0238-0.815-0.0762-0.2576-0.0477-0.4864-0.1239-0.6817-0.224-0.1953-0.0952-0.3481-0.2191-0.4578-0.3764-0.1142-0.1525-0.1667-0.3291-0.1667-0.5244 0-0.2574 0.0811-0.4814 0.2478-0.6673 0.1718-0.186 0.3861-0.3481 0.6579-0.4816 0.2716-0.1381 0.572-0.2574 0.9009-0.3623 0.3288-0.1097 0.6579-0.2191 0.9867-0.3288 0.5862-0.2049 1.1154-0.4289 1.5919-0.6721 0.472-0.2432 0.8819-0.5244 1.2203-0.8532 0.3385-0.324 0.6007-0.7056 0.7818-1.1441 0.1812-0.4385 0.2716-0.9581 0.2716-1.5636 0-0.8481-0.1808-1.5729-0.5528-2.1736-0.367-0.6004-0.8532-1.0865-1.4635-1.4632-0.61-0.3767-1.3155-0.6528-2.1115-0.8246-0.796-0.1715-1.6206-0.2574-2.4786-0.2574-4.7546 0-4.371 0.4144-4.371 4.2996" fill="#003359"/>
   <g id="e" fill="#fff100">
    <path id="f" d="m115.58 571.44v5.0278l3.3265-1.6758v-5.0278z"/>
    <path id="g" d="m122.87 571.44v5.0278l-3.3264-1.6758v-5.0278z"/>
   </g>
  </g>
 </g>
</svg>
